PathFileType	4	(X/Y/Z)	C:\Users\WrightLab\Desktop\Jo\P1.2Trial14.trc
DataRate	CameraRate	NumFrames	NumMarkers	Units	OrigDataRate	OrigDataStartFrame	OrigNumFrames
100.00	100.00	       23	19	mm	100.00	352	       938
Frame#	Time	Headset_Front			Headset_Back			Headset_Left			Headset_Right			Left_Shoulder			Right_Shoulder			Sternum			C7			Left Elbow			Right Elbow			Left Wrist			Right Wrist			Left ASIS			Right ASIS			S2			Left Knee			Right Knee			Left Ankle			Right Ankle			
		X1	Y1	Z1	X2	Y2	Z2	X3	Y3	Z3	X4	Y4	Z4	X5	Y5	Z5	X6	Y6	Z6	X7	Y7	Z7	X8	Y8	Z8	X9	Y9	Z9	X10	Y10	Z10	X11	Y11	Z11	X12	Y12	Z12	X13	Y13	Z13	X14	Y14	Z14	X15	Y15	Z15	X16	Y16	Z16	X17	Y17	Z17	X18	Y18	Z18	X19	Y19	Z19	

352	3.510	-937.42010	1282.56787	904.74915	-948.35986	1515.91370	1110.36694	-1054.45667	1406.88269	1032.96301				-1153.60913	1235.75269	1199.71875				-971.80798	1158.79541	1043.92517	-925.48682	1317.35706	1251.00232	-1206.84070	846.75696	1049.61523	-660.65259	989.20215	1172.61548				-604.19702	735.46729	1107.66553				-828.64258	835.35303	1052.31775	-905.88354	919.86975	1358.77112				-850.09747	441.55475	1024.60425				-1029.11853	143.33354	1495.53979	
353	3.520				-946.29163	1515.83264	1101.66626	-1052.56738	1407.28210	1023.89447				-1152.31506	1236.29419	1190.45959				-970.28619	1159.43140	1034.68408	-923.57184	1317.10181	1242.18982	-1207.66162	847.02826	1039.37866	-659.32275	988.42035	1163.39294				-602.98920	734.96429	1099.84827				-828.26349	836.16675	1042.16711	-906.74774	917.71582	1347.34033				-849.48743	440.21948	1018.83380				-1031.52502	147.16115	1490.83533	
354	3.530	-932.77338	1283.97839	886.77417	-944.80371	1516.57556	1092.92334	-1052.63989	1409.21228	1015.28546				-1151.00549	1236.98804	1181.10803				-968.69452	1160.19580	1025.25085	-922.54156	1317.45642	1233.40039	-1208.09705	847.12408	1031.65442	-658.27631	988.46051	1154.93042				-601.66443	734.58405	1092.35999				-827.48193	837.00208	1032.69153	-905.06036	918.65674	1338.29834				-849.76093	440.33823	1011.74554				-1034.84851	151.56534	1487.05725	
355	3.540				-942.91119	1516.99255	1084.11255	-1048.69153	1408.54333	1005.26453				-1149.57202	1238.12183	1171.51208				-966.85730	1161.10156	1015.73962	-921.62256	1318.18689	1224.52075				-657.77148	988.71411	1148.40942				-601.37500	734.68500	1084.32397				-826.17828	838.03162	1023.37396	-904.73956	918.70465	1328.65344				-849.90979	442.09549	1004.89496							
356	3.550				-940.97473	1517.79883	1075.28528	-1046.64392	1409.58997	995.88849				-1148.50549	1239.45532	1161.76526				-965.10046	1162.45483	1006.39758	-920.57660	1319.12305	1215.58594				-656.41180	989.16840	1138.89185				-598.84949	735.05157	1075.75256				-824.10327	838.50659	1014.96124	-903.74957	918.72626	1317.98865				-849.15851	442.59964	998.67700							
357	3.560				-939.58319	1518.99060	1066.48438	-1044.52271	1410.75256	986.40826				-1147.19800	1241.00085	1151.95398				-963.25287	1163.83850	997.11853	-919.04126	1319.89355	1206.64929				-655.03650	990.53925	1130.21240				-598.47736	736.11163	1067.79565				-822.25421	840.36029	1005.74780	-903.73694	920.12872	1308.23572				-848.64795	444.33383	989.71240							
358	3.570				-937.90240	1520.08325	1057.72852	-1042.50305	1412.07385	976.97864				-1145.95764	1242.51843	1141.96826				-961.49225	1165.17151	987.87756	-917.41235	1320.77686	1197.72925	-1206.37952	963.19568	1206.65698	-655.54492	991.19513	1121.24463				-597.43921	737.42834	1058.92383				-820.56610	842.14191	996.18555	-903.38068	921.29462	1298.79236				-847.59259	446.16187	982.39392							
359	3.580				-936.31366	1521.17957	1049.23083	-1040.32458	1413.29907	967.58374				-1144.70776	1244.09900	1132.00903				-959.68347	1166.53271	978.81110	-917.04041	1322.29675	1188.93152	-1205.14099	965.11438	1197.28845	-655.52362	991.66791	1111.62805				-596.28455	738.89960	1049.85828				-818.28442	844.20557	986.77319	-902.59766	922.81610	1288.92627				-846.75922	448.44058	974.32227							
360	3.590				-934.80963	1522.14819	1040.91443	-1038.21350	1414.45044	958.37097				-1143.56873	1245.69482	1122.03430				-957.72565	1167.64319	969.83447	-916.14026	1323.39124	1180.33264	-1204.16382	967.13159	1187.99170	-652.44714	994.75702	1102.86084				-594.92975	741.14423	1040.43994	-1084.43994	863.05487	1029.72339	-816.25983	845.02759	979.83655	-901.43738	923.58398	1279.38293				-846.40393	450.09244	966.92188				-1056.72424	181.47525	1438.22498	
361	3.600				-932.99139	1522.96973	1032.72791	-1036.14539	1415.59717	949.28119				-1142.53601	1247.14893	1112.17126				-955.86108	1168.74121	961.13855	-914.46735	1324.06042	1171.75464	-1203.29102	969.05518	1178.60144	-650.53839	996.71783	1094.20862				-595.30487	742.84393	1031.89673	-1082.41785	862.63831	1020.52338	-814.66620	847.07208	971.60779	-900.74664	925.26019	1270.39282				-844.98059	451.88654	960.27411				-873.92206	122.21352	937.44086	
362	3.610				-931.27710	1523.37085	1024.75562	-1034.03247	1416.59338	940.29462				-1141.60266	1248.44446	1102.37122				-954.03375	1169.59167	952.69678	-913.64740	1325.06177	1163.55029	-1201.90259	970.39465	1169.17310	-649.01080	998.19995	1085.09497				-593.58490	744.48297	1020.58978	-1080.79150	864.28693	1012.45715	-811.91241	847.92365	963.09033	-899.54230	926.34967	1261.15112				-844.03955	453.75073	955.06604				-1063.70850	191.77982	1413.51831	
363	3.620				-929.63318	1524.14893	1016.76880	-1032.06360	1417.52942	931.40656				-1140.57190	1249.41907	1092.88501				-952.26373	1170.31360	944.49402	-913.18750	1326.04883	1155.47876	-1200.39197	971.04169	1159.67139	-649.31976	999.10791	1076.29309				-592.63013	746.59125	1011.37982	-1078.87195	864.93964	1003.77325	-809.70691	849.79395	954.06226	-898.89990	927.86810	1252.47888				-842.06799	454.84299	949.21924				-1067.45032	197.24191	1399.91968	
364	3.630				-927.76721	1524.43506	1008.82977	-1030.00305	1418.46436	922.53296				-1139.51721	1250.20679	1083.58472				-950.23926	1170.41821	936.07861	-912.50134	1327.06970	1147.60181	-1199.22693	971.40070	1150.20239	-645.14551	1001.23431	1067.03467				-591.71753	747.29150	1000.76349	-1076.84900	865.39313	994.99506	-806.79663	850.32489	948.04303	-897.76837	928.62744	1244.48145				-840.79169	456.02155	943.07153				-874.17017	120.65634	933.29156	
365	3.640				-926.68658	1525.26477	1001.05566	-1028.02466	1419.12488	913.86066				-1138.74927	1250.82935	1074.56885				-948.54059	1170.98425	928.25903	-911.31464	1327.43982	1139.83850	-1199.01648	972.28436	1140.78406	-643.84625	1002.50708	1058.33789				-590.50140	749.27014	988.87024	-1074.81445	865.83307	986.22272	-804.06995	851.29388	940.37842	-896.79297	929.62488	1236.47778	-1118.56177	435.62366	1061.47974	-839.74817	456.64954	939.28278				-875.07336	120.43916	931.87177	
366	3.650				-925.37537	1525.77808	993.38513	-1026.01880	1419.84595	905.17920				-1137.73999	1251.09534	1065.85571				-946.91412	1171.35559	920.75470	-910.67725	1328.15991	1132.31873	-1198.51404	972.77747	1131.24060	-641.82013	1003.43811	1050.19104				-589.26074	750.50372	978.83984	-1072.99902	866.71515	977.60944	-800.97174	851.52850	932.11322	-895.44135	929.57599	1229.03101	-1121.50378	438.80832	1042.64502	-838.59619	455.42801	935.19745	-808.40692	472.62610	809.01971	-876.19910	119.31314	932.74023	
367	3.660				-924.31970	1526.31604	985.73297	-1024.17407	1420.29968	896.89233				-1136.74585	1251.32336	1057.44641				-945.62225	1171.91626	912.94849	-910.48022	1328.87671	1125.08655	-1197.19153	971.86346	1121.47583	-639.43237	1004.32324	1040.67664	-1193.96484	864.56647	907.25092	-588.29523	751.71783	967.45221	-1070.87927	866.17957	968.72302	-798.03723	851.93567	925.26605	-894.47925	929.59644	1221.69617	-1124.17603	440.12769	1026.76697	-837.70239	454.84512	932.00824				-876.98303	118.25465	933.30365	
368	3.670				-923.55450	1527.07190	978.22784	-1022.32581	1420.77698	888.63184				-1135.71838	1251.23853	1049.37732				-943.80200	1172.10913	905.80347	-909.74860	1329.44092	1117.97070	-1197.53564	972.33221	1111.89172	-637.53918	1005.27368	1032.34180	-1192.52026	866.07935	896.91479	-586.69513	753.04016	955.80597	-1068.52966	866.19031	961.18030	-795.60626	852.21552	917.73657	-894.01508	929.70319	1214.80591	-1125.84424	443.00363	1006.58539	-836.21564	453.40805	930.51056				-877.30945	117.48800	933.48865	
369	3.680	-893.52979	1296.52417	768.03802	-922.00275	1527.26331	970.66870	-1020.60083	1421.00708	880.77277				-1134.42737	1251.14648	1041.60583				-942.49219	1173.01074	899.04224	-908.48859	1329.35828	1110.91565	-1197.27417	971.99506	1102.18066	-635.63422	1006.01141	1024.80908	-1190.54895	866.92053	886.53760	-586.03131	753.64520	944.30566	-1065.98792	866.19720	952.29016	-792.96857	851.83600	910.46729	-893.41357	929.66406	1207.65063	-1126.97864	446.53717	986.97479	-834.39252	452.33017	926.69727				-876.89368	118.17430	929.47852	
370	3.690	-891.15918	1296.29309	761.74609	-920.79962	1527.87854	963.28168	-1018.73297	1421.23535	872.98529				-1133.13831	1250.92224	1033.91626				-940.49457	1172.43896	891.12714	-907.77612	1329.78516	1104.02795	-1196.23816	971.04852	1092.25537	-633.92261	1006.29266	1015.64612	-1190.13867	868.88037	875.92029	-584.57031	754.80786	933.69855	-1065.86536	864.72565	944.54974	-790.23608	852.61401	903.16833	-892.82050	929.41821	1200.30859	-1127.34106	449.29990	968.77148	-831.57404	451.13647	924.49585				-876.05920	116.05364	930.03632	
371	3.700	-888.71753	1296.12793	755.46954	-919.13623	1528.02954	955.84393	-1017.05225	1421.37378	865.53461				-1131.98511	1250.70300	1026.50195				-939.16974	1173.53979	884.50116	-907.15863	1330.11719	1097.25842	-1196.46985	971.22986	1082.73547	-631.24866	1007.01581	1008.11255	-1187.81421	870.01880	865.72900	-583.43854	756.13403	921.97540	-1063.81738	865.06360	934.03668	-787.63794	852.88391	895.44373	-892.79297	929.58105	1193.61218	-1126.68506	452.84583	950.72656	-829.04425	449.48880	921.58075				-875.13806	114.62109	931.97797	
372	3.710	-886.46954	1296.32495	749.25928	-918.00439	1528.53003	948.57825	-1015.37958	1421.31934	858.22925				-1130.55933	1250.58069	1018.96838				-937.28241	1173.53540	877.14374	-906.90027	1330.69702	1090.62207	-1196.19287	970.81226	1073.18787	-629.52832	1007.09351	1000.43591	-1185.71851	870.84546	855.46515	-582.32385	756.96497	910.59076	-1062.12134	865.34222	925.64764	-784.94641	853.48645	888.37524	-891.98792	929.07697	1186.01611	-1125.91895	454.03687	935.64020	-826.12885	448.90567	919.47882				-873.40759	115.08125	929.17871	
373	3.720	-884.10797	1296.24976	742.21143	-916.90948	1529.18640	941.37952	-1013.69678	1421.44141	850.99194				-1129.19617	1250.30750	1011.57629				-935.59546	1174.24841	869.67877	-905.95361	1331.03906	1083.96411	-1195.28174	970.48010	1063.60498	-627.53857	1007.72931	992.80963	-1183.22595	871.29950	845.50366	-581.30432	758.29144	899.01971				-782.91730	853.57898	881.34198	-891.77893	929.20532	1178.55750	-1124.99487	457.51270	917.37518	-821.67261	447.51526	916.75983				-872.02466	114.24175	929.92682	
374	3.730	-882.16608	1295.95874	735.90198	-915.69501	1529.58899	934.27954	-1012.08984	1421.48669	843.95453				-1127.89832	1250.21765	1003.99805				-933.52277	1175.20129	863.25354	-904.64691	1330.95715	1077.25146	-1193.76160	969.34100	1054.03210	-625.74622	1007.95026	984.60168	-1180.93738	872.11456	835.44714	-580.13916	759.69751	888.31525				-780.48920	854.81000	874.09656	-892.54071	929.95410	1172.13318	-1123.59814	462.14346	898.37659	-817.28229	446.65088	915.32092				-869.12640	113.85957	928.51251	
